<?xml version="1.0" encoding="utf-8"?>
<!-- Generator: Adobe Illustrator 26.3.1, SVG Export Plug-In . SVG Version: 6.00 Build 0)  -->
<svg version="1.1" id="Layer_1" xmlns="http://www.w3.org/2000/svg" xmlns:xlink="http://www.w3.org/1999/xlink" x="0px" y="0px"
	 viewBox="0 0 1024 1024" style="enable-background:new 0 0 1024 1024;" xml:space="preserve">
<style type="text/css">
	.st0{fill:#FFFFFF;}
</style>
<g>
	<path class="st0" d="M967.48,0H56.52C25.3,0,0,25.3,0,56.52v910.97C0,998.69,25.29,1024,56.52,1024H547V628H414V473h133V358.93
		c0-132.26,80.77-204.28,198.76-204.28c56.51,0,105.09,4.21,119.24,6.09v138.22L783.63,299c-64.2,0-76.63,30.51-76.63,75.28V473
		h153.49L840.5,628H707v396h260.48c31.21,0,56.52-25.3,56.52-56.52V56.52C1024,25.3,998.7,0,967.48,0z"/>
</g>
</svg>
